<svg version="1.2" xmlns="http://www.w3.org/2000/svg" viewBox="0 0 246 261" width="1000" height="1061">
	<style>
		.s0 { fill: #bea4e1 } 
		.s1 { fill: #5a69f1 } 
		.s2 { fill: #553e98 } 
		.s3 { fill: #371f69 } 
	</style>
	<g id="Background">
		<path id="Path 2" class="s0" d="m157.46 79.09c-6.03 7.2-11.64 13.69-12.46 14.42-1.28 1.14-2.81 0.26-10.5-6.07-4.95-4.07-9.68-7.43-10.5-7.46-0.82-0.04-2.71 1.41-4.18 3.22-1.48 1.82-4.85 5.62-7.5 8.45-2.65 2.83-6.39 7.03-8.32 9.33-2.17 2.59-3.12 4.49-2.5 4.98 0.55 0.44 6.18 5.23 12.5 10.63 6.32 5.41 17.95 15.47 25.83 22.37l14.34 12.54c3.56-3.88 8.7-9.61 13.71-15.25 5.02-5.64 9.12-10.7 9.12-11.25 0-0.55-1.46-2.29-3.25-3.86-1.79-1.57-5.95-5.24-9.25-8.15-3.3-2.91-6.11-5.45-6.25-5.64-0.14-0.19 5.6-7.32 12.75-15.85l13-15.5c-4.26-1.65-7.64-3.9-10.25-6.06-2.61-2.17-4.88-3.94-5.04-3.94-0.16 0-5.22 5.89-11.25 13.09z"/>
		<path id="Shape 1" fill-rule="evenodd" class="s1" d="m203.5 85c-23.5 0-42.5-19-42.5-42.5 0-23.5 19-42.5 42.5-42.5 23.5 0 42.5 19 42.5 42.5 0 23.5-19 42.5-42.5 42.5z"/>
		<path id="Path 4" class="s2" d="m31.23 40.25c-0.55 0.69-2.34 3.95-3.99 7.25-1.64 3.3-4.11 9.38-5.49 13.5-1.38 4.13-3.35 11.32-4.38 16-1.46 6.65-1.87 12.63-1.87 27.5 0.01 14.55 0.43 20.99 1.83 27.5 0.99 4.68 2.93 11.88 4.3 16 1.37 4.13 4.21 11.1 6.32 15.5 2.11 4.4 6.67 12.27 10.14 17.5 3.89 5.86 10.54 13.73 17.36 20.55 6.08 6.08 14.65 13.49 19.05 16.46 4.4 2.98 11.82 7.3 16.5 9.62 4.68 2.31 12.1 5.42 16.5 6.89 4.4 1.48 11.82 3.57 16.5 4.64 5.77 1.33 13.96 2.14 25.5 2.52 13.51 0.44 18.85 0.21 26-1.12 4.95-0.93 13.73-3.26 19.5-5.18 5.77-1.92 14.55-5.62 19.5-8.22 4.95-2.6 11.62-6.74 14.83-9.2 3.53-2.7 6.04-5.44 6.36-6.96 0.29-1.38 0.25-3.51-0.08-4.75-0.34-1.24-3.42-5.74-6.86-10-3.44-4.26-12.32-13.84-19.75-21.29-7.43-7.45-18.35-18.03-24.28-23.5-10.39-9.6-10.84-9.89-12.29-7.96-0.82 1.1-2.27 3.07-3.21 4.37-1.69 2.33-1.65 2.43 2.83 6.5 2.5 2.27 10.79 9.98 18.43 17.13 7.64 7.15 18.06 17.73 23.17 23.5 5.1 5.77 9.06 10.61 8.81 10.75-0.25 0.14-3.27-1.06-6.71-2.66-3.44-1.6-11.88-6.63-18.75-11.16-6.88-4.53-19.25-13.29-27.5-19.46-8.25-6.17-24.45-19.23-36-29.01-11.55-9.79-26.85-23.05-34-29.47-7.15-6.42-18.87-17.48-26.04-24.58-7.17-7.1-16.62-17.04-21-22.09-4.38-5.05-8.85-10.68-9.93-12.5l-1.97-3.32c9.25 5.2 16.44 9.7 21.93 13.36 5.49 3.65 16.29 11.52 24 17.48l14.01 10.84c4.89-5.95 6.12-8.02 5.9-8.43-0.22-0.41-8.61-6.9-18.65-14.42-10.04-7.52-21.85-16.02-26.25-18.88-4.4-2.87-11.26-6.84-15.25-8.83-4.05-2.02-8.75-3.62-10.64-3.62-1.86 0-3.83 0.56-4.38 1.25zm4.27 183c-5.2 10.59-9.23 19.59-8.97 20 0.26 0.41 17.57 0.75 38.47 0.75 24.67 0 38-0.35 38-1 0-0.55-1.69-1.71-3.75-2.57-2.06-0.87-6.68-2.92-10.25-4.58-3.57-1.65-10.89-5.89-16.25-9.43-5.36-3.53-13.46-10-18-14.39-4.54-4.38-8.6-7.98-9.03-8-0.43-0.01-5.03 8.63-10.22 19.22z"/>
		<path id="Layer 2" fill-rule="evenodd" class="s3" d="m219 252v9h-219v-9z"/>
	</g>
</svg>